<mxfile host="app.diagrams.net" agent="Mozilla/5.0 (Windows NT 10.0; Win64; x64) AppleWebKit/537.36 (KHTML, like Gecko) Chrome/133.0.0.0 Safari/537.36 Edg/133.0.0.0" version="26.0.16" pages="2">
  <diagram name="Page-1" id="AGgF0UCdI9SENY6JSwIW">
    <mxGraphModel dx="1365" dy="806" grid="1" gridSize="10" guides="1" tooltips="1" connect="1" arrows="1" fold="1" page="1" pageScale="1" pageWidth="850" pageHeight="1100" math="0" shadow="0">
      <root>
        <mxCell id="0" />
        <mxCell id="1" parent="0" />
        <mxCell id="w4l-ZbUPUyFj4oiOUVe3-21" value="" style="rounded=0;whiteSpace=wrap;html=1;dashed=1;" vertex="1" parent="1">
          <mxGeometry x="90" y="510" width="460" height="110" as="geometry" />
        </mxCell>
        <mxCell id="w4l-ZbUPUyFj4oiOUVe3-20" value="" style="rounded=0;whiteSpace=wrap;html=1;dashed=1;" vertex="1" parent="1">
          <mxGeometry x="90" y="400" width="460" height="110" as="geometry" />
        </mxCell>
        <mxCell id="w4l-ZbUPUyFj4oiOUVe3-3" value="" style="edgeStyle=orthogonalEdgeStyle;rounded=0;orthogonalLoop=1;jettySize=auto;html=1;" edge="1" parent="1" source="w4l-ZbUPUyFj4oiOUVe3-1" target="w4l-ZbUPUyFj4oiOUVe3-2">
          <mxGeometry relative="1" as="geometry" />
        </mxCell>
        <mxCell id="w4l-ZbUPUyFj4oiOUVe3-1" value="compute_spectrum(frame)" style="ellipse;whiteSpace=wrap;html=1;" vertex="1" parent="1">
          <mxGeometry x="60" y="60" width="220" height="80" as="geometry" />
        </mxCell>
        <mxCell id="w4l-ZbUPUyFj4oiOUVe3-6" value="" style="edgeStyle=orthogonalEdgeStyle;rounded=0;orthogonalLoop=1;jettySize=auto;html=1;entryX=0.5;entryY=0;entryDx=0;entryDy=0;" edge="1" parent="1" source="w4l-ZbUPUyFj4oiOUVe3-2" target="w4l-ZbUPUyFj4oiOUVe3-7">
          <mxGeometry relative="1" as="geometry">
            <mxPoint x="170" y="300" as="targetPoint" />
          </mxGeometry>
        </mxCell>
        <mxCell id="w4l-ZbUPUyFj4oiOUVe3-2" value="&lt;div&gt;Inisiasi&lt;/div&gt;&lt;div&gt;&lt;b&gt;roi_coords =&lt;/b&gt; koordinat gambar&lt;/div&gt;&lt;b&gt;frame = &lt;/b&gt;frame yang diberikan" style="whiteSpace=wrap;html=1;" vertex="1" parent="1">
          <mxGeometry x="62.5" y="180" width="215" height="80" as="geometry" />
        </mxCell>
        <mxCell id="w4l-ZbUPUyFj4oiOUVe3-10" value="" style="edgeStyle=orthogonalEdgeStyle;rounded=0;orthogonalLoop=1;jettySize=auto;html=1;" edge="1" parent="1" source="w4l-ZbUPUyFj4oiOUVe3-7" target="w4l-ZbUPUyFj4oiOUVe3-9">
          <mxGeometry relative="1" as="geometry" />
        </mxCell>
        <mxCell id="w4l-ZbUPUyFj4oiOUVe3-7" value="&lt;b&gt;cropped = &lt;/b&gt;pemotongan &lt;b&gt;frame&lt;/b&gt; dari gambar spektrometer berdasarkan &lt;b&gt;roi_coords&lt;/b&gt;" style="whiteSpace=wrap;html=1;" vertex="1" parent="1">
          <mxGeometry x="110" y="280" width="120" height="100" as="geometry" />
        </mxCell>
        <mxCell id="w4l-ZbUPUyFj4oiOUVe3-19" value="" style="edgeStyle=orthogonalEdgeStyle;rounded=0;orthogonalLoop=1;jettySize=auto;html=1;exitX=0.5;exitY=1;exitDx=0;exitDy=0;" edge="1" parent="1" source="w4l-ZbUPUyFj4oiOUVe3-9" target="w4l-ZbUPUyFj4oiOUVe3-11">
          <mxGeometry relative="1" as="geometry">
            <mxPoint x="360" y="390" as="sourcePoint" />
          </mxGeometry>
        </mxCell>
        <mxCell id="w4l-ZbUPUyFj4oiOUVe3-9" value="&lt;b&gt;cropped_gray =&lt;/b&gt; hasil &lt;b&gt;frame&lt;/b&gt; yang telah dipotong dan telah dijadikan grayscale" style="whiteSpace=wrap;html=1;" vertex="1" parent="1">
          <mxGeometry x="300" y="290" width="120" height="80" as="geometry" />
        </mxCell>
        <mxCell id="w4l-ZbUPUyFj4oiOUVe3-14" value="" style="edgeStyle=orthogonalEdgeStyle;rounded=0;orthogonalLoop=1;jettySize=auto;html=1;" edge="1" parent="1" source="w4l-ZbUPUyFj4oiOUVe3-11" target="w4l-ZbUPUyFj4oiOUVe3-13">
          <mxGeometry relative="1" as="geometry" />
        </mxCell>
        <mxCell id="w4l-ZbUPUyFj4oiOUVe3-11" value="&lt;b&gt;intensity_profile =&lt;/b&gt; Menjumlahkan seluruh pixel y pada setiap x di &lt;b&gt;cropped_gray&lt;/b&gt;" style="whiteSpace=wrap;html=1;" vertex="1" parent="1">
          <mxGeometry x="300" y="420" width="120" height="70" as="geometry" />
        </mxCell>
        <mxCell id="w4l-ZbUPUyFj4oiOUVe3-16" value="" style="edgeStyle=orthogonalEdgeStyle;rounded=0;orthogonalLoop=1;jettySize=auto;html=1;" edge="1" parent="1" source="w4l-ZbUPUyFj4oiOUVe3-13" target="w4l-ZbUPUyFj4oiOUVe3-15">
          <mxGeometry relative="1" as="geometry" />
        </mxCell>
        <mxCell id="w4l-ZbUPUyFj4oiOUVe3-13" value="Melakukan normalisasi &lt;b&gt;intensity_profile&lt;/b&gt;" style="whiteSpace=wrap;html=1;" vertex="1" parent="1">
          <mxGeometry x="110" y="420" width="120" height="70" as="geometry" />
        </mxCell>
        <mxCell id="w4l-ZbUPUyFj4oiOUVe3-18" value="" style="edgeStyle=orthogonalEdgeStyle;rounded=0;orthogonalLoop=1;jettySize=auto;html=1;" edge="1" parent="1" source="w4l-ZbUPUyFj4oiOUVe3-15" target="w4l-ZbUPUyFj4oiOUVe3-17">
          <mxGeometry relative="1" as="geometry" />
        </mxCell>
        <mxCell id="w4l-ZbUPUyFj4oiOUVe3-15" value="Menghitung jumlah pixel pada x &lt;b&gt;frame&lt;/b&gt; yang telah dipotong" style="whiteSpace=wrap;html=1;" vertex="1" parent="1">
          <mxGeometry x="110" y="530" width="120" height="70" as="geometry" />
        </mxCell>
        <mxCell id="w4l-ZbUPUyFj4oiOUVe3-26" value="" style="edgeStyle=orthogonalEdgeStyle;rounded=0;orthogonalLoop=1;jettySize=auto;html=1;" edge="1" parent="1" source="w4l-ZbUPUyFj4oiOUVe3-17" target="w4l-ZbUPUyFj4oiOUVe3-25">
          <mxGeometry relative="1" as="geometry" />
        </mxCell>
        <mxCell id="w4l-ZbUPUyFj4oiOUVe3-17" value="&lt;b&gt;wavelengths =&lt;/b&gt; Melakukan ekstraksi nilai spektrum pada pixel tersebut dengan &lt;b&gt;regresi linear&lt;/b&gt;" style="whiteSpace=wrap;html=1;" vertex="1" parent="1">
          <mxGeometry x="300" y="522.5" width="120" height="85" as="geometry" />
        </mxCell>
        <mxCell id="w4l-ZbUPUyFj4oiOUVe3-22" value="&lt;b&gt;Mencari nilai intensitas&lt;/b&gt;&lt;div&gt;&lt;b&gt;spektrum&lt;/b&gt;&lt;/div&gt;" style="text;html=1;align=center;verticalAlign=middle;whiteSpace=wrap;rounded=0;" vertex="1" parent="1">
          <mxGeometry x="470" y="440" width="60" height="30" as="geometry" />
        </mxCell>
        <mxCell id="w4l-ZbUPUyFj4oiOUVe3-23" value="&lt;b&gt;Memetakan nilai spektrum terhadap intensitasnya&lt;/b&gt;" style="text;html=1;align=center;verticalAlign=middle;whiteSpace=wrap;rounded=0;" vertex="1" parent="1">
          <mxGeometry x="470" y="550" width="60" height="30" as="geometry" />
        </mxCell>
        <mxCell id="w4l-ZbUPUyFj4oiOUVe3-25" value="return&amp;nbsp;&lt;div&gt;wavelengths, intensity_profile, cropped&lt;/div&gt;" style="ellipse;whiteSpace=wrap;html=1;" vertex="1" parent="1">
          <mxGeometry x="300" y="660" width="120" height="80" as="geometry" />
        </mxCell>
      </root>
    </mxGraphModel>
  </diagram>
  <diagram id="KwyMdSQx-IoTywO3RjMq" name="Page-2">
    <mxGraphModel dx="310" dy="685" grid="1" gridSize="10" guides="1" tooltips="1" connect="1" arrows="1" fold="1" page="1" pageScale="1" pageWidth="850" pageHeight="1100" math="0" shadow="0">
      <root>
        <mxCell id="0" />
        <mxCell id="1" parent="0" />
        <mxCell id="xqEn8ZRIu3bwLr--k4N--1" value="&lt;h1 style=&quot;margin-top: 0px;&quot;&gt;Keterangan&lt;/h1&gt;&lt;p&gt;frame &lt;span style=&quot;white-space: pre;&quot;&gt;&#x9;&lt;/span&gt;&lt;span style=&quot;white-space: pre;&quot;&gt;&#x9;&lt;/span&gt;= array 2D&lt;/p&gt;&lt;p&gt;ROI_COORDS = array 1D (x,y,weight,height)&lt;/p&gt;&lt;p&gt;cropped_gray &lt;span style=&quot;white-space: pre;&quot;&gt;&#x9;&lt;/span&gt;= array 2D&lt;/p&gt;&lt;p&gt;intensity_profile= array 1D ()&lt;/p&gt;&lt;p&gt;wavelengths&amp;nbsp;&lt;span style=&quot;white-space: pre;&quot;&gt;&#x9;&lt;/span&gt;= array 1D&lt;/p&gt;&lt;p&gt;regresi linear:&amp;nbsp;&lt;span style=&quot;background-color: transparent; color: light-dark(rgb(0, 0, 0), rgb(255, 255, 255));&quot; class=&quot;base&quot;&gt;&lt;span class=&quot;mord mathnormal&quot;&gt;λ&lt;/span&gt;&lt;span class=&quot;mspace&quot;&gt;&lt;/span&gt;&lt;span class=&quot;mrel&quot;&gt;=&lt;/span&gt;&lt;span class=&quot;mspace&quot;&gt;&lt;/span&gt;&lt;/span&gt;&lt;span style=&quot;background-color: transparent; color: light-dark(rgb(0, 0, 0), rgb(255, 255, 255));&quot; class=&quot;base&quot;&gt;&lt;span class=&quot;strut&quot;&gt;&lt;/span&gt;&lt;span class=&quot;mord mathnormal&quot;&gt;m&lt;/span&gt;&lt;span class=&quot;mspace&quot;&gt;&lt;/span&gt;&lt;span class=&quot;mbin&quot;&gt;⋅&lt;/span&gt;&lt;span class=&quot;mspace&quot;&gt;&lt;/span&gt;&lt;/span&gt;&lt;span style=&quot;background-color: transparent; color: light-dark(rgb(0, 0, 0), rgb(255, 255, 255));&quot; class=&quot;base&quot;&gt;&lt;span class=&quot;strut&quot;&gt;&lt;/span&gt;&lt;span class=&quot;mord mathnormal&quot;&gt;x&lt;/span&gt;&lt;span class=&quot;mspace&quot;&gt;&lt;/span&gt;&lt;span class=&quot;mbin&quot;&gt;+&lt;/span&gt;&lt;span class=&quot;mspace&quot;&gt;&lt;/span&gt;&lt;/span&gt;&lt;span style=&quot;background-color: transparent; color: light-dark(rgb(0, 0, 0), rgb(255, 255, 255));&quot; class=&quot;base&quot;&gt;&lt;span class=&quot;strut&quot;&gt;&lt;/span&gt;&lt;span class=&quot;mord mathnormal&quot;&gt;b. di mana nilai m dan b didapatkan dari hasil kalibrasi dengan sumber cahaya yang telah diketahui nilai spektrum nya. Lambda adalah panjang gelombang, dan x adalah pixel pada sumbu x gambar&lt;/span&gt;&lt;/span&gt;&lt;/p&gt;" style="text;html=1;whiteSpace=wrap;overflow=hidden;rounded=0;" vertex="1" parent="1">
          <mxGeometry x="880" y="380" width="310" height="250" as="geometry" />
        </mxCell>
      </root>
    </mxGraphModel>
  </diagram>
</mxfile>
